<?xml version="1.0" encoding="UTF-8"?>
<svg id="Layer_1" data-name="Layer 1" xmlns="http://www.w3.org/2000/svg" viewBox="0 0 1000 1000">
  <defs>
    <style>
      .cls-1 {
        fill: #e1251b;
      }

      .cls-1, .cls-2 {
        stroke-width: 0px;
      }

      .cls-2 {
        fill: #002e6d;
      }
    </style>
  </defs>
  <path class="cls-2" d="m71.57,100.48h-22.64v-21.28h22.64v21.28Zm74.83,97.76h-37.51c-9.97,19.24-28.5,30.71-49.98,30.71-32.14,0-57.75-27.39-57.75-62.87v-51.58h25.8v49.15c0,24.43,12.28,41.26,32.24,41.26s31.94-17.39,31.94-41.26v-49.15h25.62v58.97h29.64v24.76Z"/>
  <path class="cls-2" d="m193.31,228.95h-22.73v-21.47h22.73v21.47Zm29.45-30.7h-82.31v-24.77h16.79c8.53,0,12.85-5.91,12.85-17.76v-41.2h25.81v40.29c0,6.87-.96,12.96-2.88,18.68h29.73v24.77Zm-63.79,30.7h-22.73v-21.47h22.73v21.47Z"/>
  <path class="cls-2" d="m320.9,137.1c-7.97-4.1-15.64-6.13-23.12-6.13s-14.58,1.67-21.77,5.16c5.47,2.43,9.88,5.02,13.14,7.4,3.36,2.42,7.19,6.13,11.32,11.12,3.74-1.7,7.77-4.65,11.99-8.53,3.83-3.3,6.72-6.27,8.44-9.02m52.67,61.15h-47.2c-10.65,0-20.14-4.27-28.4-12.92-4.41,3.68-10.07,6.84-17.17,9.24-7.68,2.4-15.25,3.68-22.64,3.68h-40.29v-24.77h39.81c9.02,0,17.08-2,23.8-6.27-2.69-3.9-7.49-7.76-13.82-11.83-7.78-4.82-15.25-7.95-22.36-9.26v-21.28c16.59-9.95,33.58-14.92,50.65-14.92,20.34,0,39.14,6.81,56.5,20.31-2.01,5.02-6.52,11.66-13.33,19.58-7.48,8.7-14.48,15-21,19.03,3.26,3.2,7.86,4.65,13.71,4.65h41.73v24.77Z"/>
  <path class="cls-2" d="m421.14,162.6c0,9.79-2.78,17.91-8.06,24.38-6.04,7.58-14.39,11.26-25.23,11.26h-24.08v-24.76h18.81c8.53,0,12.94-6.1,12.94-18.1v-76.17h25.62v83.4Z"/>
  <rect class="cls-2" x="439.86" y="79.04" width="25.52" height="119.21"/>
  <path class="cls-2" d="m618.57,163.49h-50.65c-18.03,0-25.99,5.92-25.99,20.14,0,13.47,8.62,20.16,25.99,20.16h35.12v25.16h-33.68c-33.09,0-52.18-16.45-52.18-45.32,0-20.87,10.84-36.43,30.41-42.48-2.88-6.14-4.32-15.76-4.32-22.01,0-22.04,17.46-39.95,39.82-39.95,15.45,0,28.19,8.34,34.24,22.57l-20.53,9.6c-2.41-7.2-6.91-10.72-14.11-10.72-8.92,0-15.35,8.12-15.35,19.61,0,9.04,3.45,15.14,10.26,18.29h40.96v24.93Z"/>
  <path class="cls-2" d="m684.76,181.26c0,16.99-4.13,29.18-12.76,36.77-7.87,7.19-20.63,10.74-38.18,10.74v-20.92c16.78,0,25.23-8.12,25.23-24.36v-68.98h25.71v66.75Z"/>
  <rect class="cls-2" x="703.56" y="79.04" width="25.52" height="119.21"/>
  <path class="cls-2" d="m796.32,100.48h-22.64v-21.28h22.64v21.28Zm28.69,97.76h-28.4c-4.23,20.31-20.63,30.52-49.7,30.52v-20.92c16.79,0,25.24-8.12,25.24-24.36v-68.98h25.81v58.97h27.05v24.76Z"/>
  <rect class="cls-2" x="819.54" y="173.48" width="39.13" height="25.38"/>
  <rect class="cls-2" x="855.8" y="173.48" width="39.14" height="25.38"/>
  <path class="cls-2" d="m974.17,172.95c0-14.64-5.46-22.01-16.3-22.01h-1.82c-9.41,0-15.74,8.67-15.74,20.86s6.24,21.28,17.17,21.28c10.08,0,16.69-8.14,16.69-20.13m25.33-.93c0,24.74-16.4,42.12-42.02,42.12-15.54,0-27.24-5.35-34.72-15.9h-32.9v-24.77h25.33c0-26.43,15.06-43.26,41.35-43.26s42.98,16.48,42.98,41.81"/>
  <path class="cls-2" d="m40.22,868.17h38.18l-19.29-53.42-18.89,53.42Zm51.32,35.89l-6.14-16.21h-52l-6.13,16.6c-2.41,6.46-4.42,10.83-6.15,13.08-1.63,2.25-4.41,3.42-8.25,3.42-3.26,0-6.23-1.24-8.63-3.64-2.59-2.42-3.73-5.14-3.73-8.21,0-1.77.19-3.56.76-5.47.67-1.87,1.63-4.49,2.97-7.86l32.71-84.02c.87-2.41,2.02-5.29,3.36-8.7,1.35-3.37,2.69-6.21,4.13-8.43,1.54-2.23,3.55-4.02,5.95-5.4,2.39-1.41,5.37-2.08,8.92-2.08s6.62.67,9.12,2.08c2.3,1.38,4.32,3.12,5.77,5.3,1.53,2.21,2.78,4.51,3.83,7.02.96,2.5,2.3,5.85,3.83,10.04l33.49,83.52c2.59,6.35,3.92,10.98,3.92,13.81,0,3.03-1.24,5.83-3.73,8.27-2.5,2.52-5.47,3.78-8.93,3.78-2.11,0-3.84-.36-5.28-1.15-1.44-.72-2.69-1.69-3.64-2.98-1.06-1.26-2.11-3.17-3.17-5.84-1.15-2.58-2.2-4.87-2.97-6.93"/>
  <path class="cls-2" d="m128.94,906.29v-104.51c0-4.82,1.21-8.45,3.43-10.95,2.21-2.48,5.24-3.71,8.98-3.71s6.86,1.24,9.18,3.66c2.42,2.45,3.52,6.13,3.52,11v104.51c0,4.87-1.1,8.53-3.52,10.98-2.31,2.45-5.44,3.68-9.18,3.68-3.53,0-6.66-1.28-8.87-3.8-2.32-2.53-3.53-6.16-3.53-10.86"/>
  <path class="cls-2" d="m239.27,868.17h38.18l-19.28-53.42-18.9,53.42Zm51.32,35.89l-6.14-16.21h-52.09l-6.05,16.6c-2.29,6.46-4.41,10.83-6.14,13.08-1.63,2.25-4.41,3.42-8.24,3.42-3.36,0-6.14-1.24-8.73-3.64-2.39-2.42-3.74-5.14-3.74-8.21,0-1.77.38-3.56.97-5.47.47-1.87,1.43-4.49,2.78-7.86l32.8-84.02c.87-2.41,2.01-5.29,3.36-8.7,1.34-3.37,2.69-6.21,4.23-8.43,1.44-2.23,3.35-4.02,5.85-5.4,2.4-1.41,5.37-2.08,8.92-2.08s6.61.67,9.02,2.08c2.5,1.38,4.41,3.12,5.86,5.3,1.53,2.21,2.78,4.51,3.73,7.02,1.06,2.5,2.39,5.85,3.93,10.04l33.39,83.52c2.69,6.35,4.02,10.98,4.02,13.81,0,3.03-1.24,5.83-3.73,8.27-2.5,2.52-5.47,3.78-8.92,3.78-2.11,0-3.84-.36-5.28-1.15-1.44-.72-2.59-1.69-3.64-2.98-.96-1.26-2.1-3.17-3.26-5.84-1.06-2.58-2.11-4.87-2.88-6.93"/>
  <path class="cls-2" d="m353.2,836.64v69.65c0,4.82-1.22,8.48-3.54,10.96-2.44,2.45-5.47,3.7-9.22,3.7s-6.58-1.29-8.9-3.8c-2.33-2.53-3.44-6.16-3.44-10.86v-68.91c0-4.8,1.11-8.38,3.44-10.81,2.32-2.43,5.26-3.63,8.9-3.63s6.78,1.21,9.22,3.63c2.32,2.42,3.54,5.77,3.54,10.06m-12.46-24.89c-3.44,0-6.48-1.02-8.91-3.1-2.53-2.06-3.74-4.95-3.74-8.72,0-3.42,1.22-6.23,3.74-8.43,2.63-2.21,5.56-3.3,8.91-3.3s6.18,1,8.71,2.98c2.53,2.01,3.74,4.92,3.74,8.75s-1.22,6.61-3.64,8.69c-2.54,2.08-5.47,3.13-8.81,3.13"/>
  <path class="cls-2" d="m390.54,836.3v2.91c4.22-5.59,8.82-9.69,13.81-12.34,4.9-2.6,10.75-3.92,17.18-3.92s11.89,1.41,16.78,4.18c5.09,2.76,8.73,6.65,11.13,11.72,1.63,2.96,2.6,6.13,3.08,9.52.38,3.44.67,7.79.67,13.11v44.82c0,4.82-1.06,8.48-3.27,10.96-2.2,2.45-4.99,3.7-8.54,3.7s-6.33-1.28-8.62-3.8c-2.21-2.53-3.27-6.16-3.27-10.86v-40.18c0-7.93-1.15-14.01-3.35-18.2-2.11-4.22-6.43-6.3-12.95-6.3-4.32,0-8.16,1.26-11.7,3.82-3.46,2.55-6.05,6.04-7.68,10.55-1.16,3.61-1.73,10.3-1.73,20.11v30.2c0,4.87-1.15,8.53-3.35,10.98-2.21,2.46-5.08,3.68-8.73,3.68-3.45,0-6.24-1.28-8.44-3.8-2.2-2.53-3.25-6.16-3.25-10.86v-69.65c0-4.58.95-8.03,2.87-10.28,2.02-2.27,4.8-3.41,8.16-3.41,2.1,0,4.02.51,5.65,1.53,1.73,1,3.07,2.5,4.13,4.46.96,2.03,1.44,4.48,1.44,7.37"/>
  <path class="cls-2" d="m584.7,809.56h-51.13v33.08h42.68c3.93,0,7,.9,8.92,2.7,1.91,1.76,2.88,4.21,2.88,7.21s-.97,5.36-2.98,7.12c-2.01,1.79-4.89,2.65-8.82,2.65h-42.68v42.65c0,5.4-1.25,9.43-3.65,12.01-2.39,2.63-5.56,3.95-9.21,3.95-3.93,0-7-1.33-9.5-3.97-2.39-2.67-3.64-6.67-3.64-11.99v-99.56c0-3.81.57-6.88,1.72-9.27,1.06-2.37,2.79-4.12,5.18-5.21,2.39-1.09,5.37-1.62,9.03-1.62h61.2c4.13,0,7.09.93,9.21,2.82,2.01,1.81,2.98,4.26,2.98,7.26s-.97,5.5-2.98,7.4c-2.11,1.81-5.08,2.76-9.21,2.76"/>
  <path class="cls-2" d="m661.15,872.46c-3.45,1.31-8.53,2.69-15.15,4.12-6.71,1.46-11.32,2.5-13.91,3.15-2.6.73-4.99,2.04-7.29,4.04-2.39,1.95-3.55,4.67-3.55,8.23s1.35,6.76,4.13,9.31c2.7,2.53,6.33,3.83,10.75,3.83,4.71,0,9.02-1.05,13.05-3.13,3.93-2.08,6.9-4.77,8.82-8.07,2.11-3.66,3.16-9.65,3.16-18v-3.47Zm1.54,34.88c-5.76,4.54-11.23,7.95-16.69,10.2-5.37,2.25-11.42,3.42-18.13,3.42-6.14,0-11.51-1.24-16.11-3.68-4.61-2.45-8.25-5.76-10.66-9.94-2.59-4.17-3.74-8.67-3.74-13.59,0-6.55,2.02-12.22,6.15-16.84,4.22-4.66,9.88-7.78,17.08-9.38,1.44-.32,5.27-1.14,11.22-2.35,6.05-1.24,11.13-2.4,15.45-3.42,4.22-1.02,8.92-2.27,13.91-3.73-.28-6.37-1.53-11-3.83-13.98-2.2-2.99-6.81-4.49-13.92-4.49-5.94,0-10.55.85-13.61,2.6-3.07,1.67-5.66,4.24-7.87,7.66-2.2,3.41-3.74,5.67-4.6,6.73-.97,1.1-2.88,1.65-5.86,1.65-2.59,0-4.99-.85-6.9-2.64-1.92-1.7-2.88-3.9-2.88-6.62,0-4.24,1.44-8.36,4.41-12.36,2.98-4,7.49-7.3,13.82-9.91,6.33-2.58,14.1-3.87,23.5-3.87,10.56,0,18.81,1.26,24.75,3.79,5.96,2.48,10.26,6.43,12.76,11.83,2.4,5.4,3.64,12.55,3.64,21.52v14.39c0,3.97-.09,8.36-.09,13.19,0,4.53.67,9.26,2.21,14.13,1.43,4.94,2.2,8.09,2.2,9.5,0,2.46-1.16,4.73-3.46,6.76-2.29,2.01-4.89,3.06-7.87,3.06-2.39,0-4.79-1.17-7.19-3.52-2.39-2.32-4.98-5.7-7.67-10.1"/>
  <path class="cls-2" d="m724.86,886.15v20.14c0,4.87-1.15,8.53-3.45,10.98-2.3,2.45-5.08,3.68-8.63,3.68s-6.24-1.26-8.44-3.71c-2.2-2.47-3.36-6.13-3.36-10.95v-67.08c0-10.84,3.93-16.27,11.71-16.27,3.92,0,6.8,1.3,8.53,3.83,1.73,2.52,2.69,6.23,2.88,11.2,2.78-4.97,5.76-8.68,8.72-11.2,3.07-2.54,7-3.83,11.99-3.83s9.88,1.3,14.68,3.83c4.7,2.52,7,5.87,7,10.06,0,2.91-.97,5.37-2.98,7.26-2.01,1.91-4.22,2.89-6.52,2.89-.87,0-2.97-.56-6.33-1.65-3.36-1.07-6.34-1.65-8.83-1.65-3.54,0-6.42.95-8.63,2.79-2.2,1.89-3.92,4.61-5.08,8.26-1.25,3.64-2.1,7.98-2.59,13.02-.48,5.04-.67,11.17-.67,18.39"/>
  <path class="cls-2" d="m851.2,873.74v32.02c0,5.06-1.06,8.86-3.36,11.39-2.29,2.52-5.27,3.8-9.02,3.8s-6.52-1.29-8.73-3.8c-2.29-2.53-3.44-6.33-3.44-11.39v-38.39c0-6.07-.2-10.79-.58-14.11-.38-3.37-1.54-6.16-3.26-8.29-1.82-2.12-4.7-3.22-8.63-3.22-7.77,0-12.95,2.74-15.45,8.14-2.39,5.4-3.64,13.18-3.64,23.31v32.55c0,4.99-1.16,8.77-3.36,11.34-2.3,2.55-5.27,3.85-8.82,3.85s-6.62-1.31-8.93-3.85c-2.3-2.57-3.45-6.35-3.45-11.34v-68.93c0-4.53.96-7.98,3.17-10.35,2.01-2.37,4.7-3.53,8.05-3.53s6.06,1.11,8.26,3.32c2.1,2.18,3.25,5.28,3.25,9.14v2.29c4.14-4.98,8.54-8.67,13.24-11.05,4.8-2.32,9.98-3.51,15.73-3.51,6.05,0,11.14,1.22,15.46,3.63,4.32,2.38,7.87,6.04,10.65,10.93,4.13-4.94,8.34-8.59,13.04-11,4.51-2.37,9.6-3.56,15.25-3.56,6.43,0,12.09,1.29,16.79,3.9,4.7,2.57,8.24,6.25,10.55,11.1,2.11,4.36,3.07,11.22,3.07,20.58v47.04c0,5.06-1.15,8.86-3.36,11.39-2.29,2.52-5.27,3.8-9.01,3.8s-6.53-1.31-8.83-3.85c-2.39-2.57-3.54-6.35-3.54-11.34v-40.53c0-5.18-.19-9.28-.67-12.45-.38-3.1-1.53-5.75-3.45-7.84-1.92-2.12-4.8-3.19-8.73-3.19-3.17,0-6.14.94-9.02,2.83-2.79,1.87-4.99,4.45-6.52,7.59-1.82,4.08-2.69,11.25-2.69,21.57"/>
  <path class="cls-2" d="m999.41,889.45c0,6.66-1.63,12.32-4.89,17.1-3.17,4.7-7.87,8.28-14.2,10.73-6.24,2.45-13.82,3.68-22.84,3.68-8.53,0-15.92-1.33-21.96-3.97-6.15-2.67-10.66-5.99-13.53-9.96-2.88-3.96-4.41-7.95-4.41-11.92,0-2.66.96-4.91,2.78-6.8,1.92-1.89,4.32-2.84,7.1-2.84,2.5,0,4.51.63,5.76,1.84,1.44,1.28,2.69,2.98,3.83,5.23,2.5,4.27,5.47,7.47,8.82,9.62,3.45,2.11,8.06,3.16,13.91,3.16,4.8,0,8.63-1.05,11.8-3.21,2.98-2.15,4.61-4.63,4.61-7.37,0-4.24-1.63-7.32-4.8-9.28-3.17-1.91-8.44-3.75-15.74-5.55-8.15-2.06-14.86-4.22-20.04-6.49-5.08-2.23-9.21-5.24-12.29-8.98-3.16-3.68-4.7-8.21-4.7-13.68,0-4.83,1.45-9.36,4.33-13.65,2.87-4.31,7.09-7.75,12.66-10.29,5.56-2.55,12.19-3.85,20.04-3.85,6.24,0,11.8.68,16.69,1.96,4.99,1.31,9.03,3.03,12.29,5.18,3.35,2.21,5.76,4.64,7.48,7.3,1.82,2.62,2.69,5.2,2.69,7.73,0,2.76-.96,5.04-2.78,6.78-1.92,1.79-4.51,2.7-7.77,2.7-2.5,0-4.61-.75-6.34-2.16-1.72-1.43-3.64-3.51-5.86-6.32-1.82-2.37-3.92-4.25-6.42-5.69-2.5-1.44-5.76-2.11-9.98-2.11s-7.86.95-10.65,2.79c-2.97,1.84-4.31,4.17-4.31,6.93,0,2.55,1.05,4.58,3.16,6.23,2.01,1.63,4.89,2.93,8.34,4.03,3.64,1.04,8.54,2.32,14.78,3.84,7.39,1.84,13.42,4,18.12,6.55,4.71,2.52,8.25,5.52,10.65,8.95,2.5,3.44,3.65,7.4,3.65,11.82"/>
  <g>
    <path class="cls-1" d="m728.31,696.43c-36.75,15.42-77.21,27.1-120.05,34.07-200.03,32.32-378.68-50.03-399.01-184.02-14.03-92.33,50.58-185.06,157.56-244.42-134.65,56.23-221.12,162.02-205.09,267.2,20.34,134.18,199.08,216.56,398.91,184.19,62.32-10.17,119.39-30.18,167.68-57.02"/>
    <path class="cls-1" d="m853.61,450.17c-15.17-122.74-166.81-202.48-338.59-178.21-171.78,24.28-298.8,143.43-283.62,266.16,15.27,122.61,166.81,202.36,338.68,177.93,171.78-24.14,298.71-143.3,283.53-265.87m-68.14-13.43c.38,2.61-1.34,4.99-3.91,5.42l-32.25,4.77c-2.49.21-4.87-1.57-5.25-4.23-.47-2.4,1.43-4.99,4-5.27l32.16-4.63c2.49-.42,4.87,1.43,5.25,3.93m.86,41.1c-.47,2.61-2.86,4.49-5.52,4.12l-34.55-3.94c-2.67-.21-4.67-2.63-4.39-5.17.38-2.58,2.67-4.51,5.43-4.25l34.55,3.91c2.67.33,4.77,2.65,4.48,5.33m-12.11-80.68c1.05,2.46-.09,5.25-2.38,6.3l-29.87,12.88c-2.38,1.1-5.15-.1-6.02-2.36-1.14-2.57-.08-5.31,2.39-6.37l29.68-12.9c2.48-1.03,5.24.09,6.2,2.46m-20.9-35.29c1.53,2.1,1.33,5.06-.76,6.65l-25.58,20.29c-1.9,1.74-4.96,1.24-6.49-.84-1.62-2.12-1.24-4.89.76-6.67l25.39-20.27c2.1-1.57,4.96-1.26,6.68.84m-55.16-1.53l19.19-26.33c1.62-1.98,4.39-2.45,6.58-.94,2.09,1.6,2.67,4.56.96,6.73l-19.28,26.26c-1.44,1.96-4.3,2.4-6.49.87-2.1-1.6-2.49-4.49-.96-6.59m-27.67-14.41l11.73-30.44c.96-2.39,3.62-3.51,6.11-2.56,2.49,1.01,3.72,3.62,2.78,6.21l-11.93,30.41c-.96,2.43-3.72,3.63-6.02,2.63-2.58-1-3.72-3.71-2.67-6.25m-30.45-6.49l3.72-32.64c.1-2.57,2.38-4.5,5.06-4.22,2.67.35,4.48,2.68,4.11,5.37l-3.63,32.47c-.1,2.7-2.58,4.51-5.15,4.04-2.49-.09-4.49-2.42-4.1-5.03m-31.97-36.38c2.67-.48,4.96,1.36,5.44,4.04l4.96,32.38c.28,2.6-1.44,4.98-4.12,5.34-2.47.36-4.95-1.41-5.33-4.06l-4.87-32.37c-.38-2.61,1.34-4.99,3.91-5.34m-39.03,10.92c2.29-1.03,5.15.1,6.11,2.54l13.07,30.11c1.15,2.53,0,5.24-2.48,6.3-2.29,1.03-5.06-.17-6.11-2.49l-13.08-30.22c-1.05-2.39,0-5.18,2.49-6.24m-34.93,20.9c2-1.59,4.86-1.22,6.49.8l20.33,25.74c1.62,2.07,1.43,5.06-.67,6.75-2,1.55-5.05,1.17-6.58-.89l-20.43-25.79c-1.62-2.05-1.24-4.89.87-6.61m-28.35,29.32c1.53-2.09,4.49-2.72,6.68-.93l26.24,19.59c2,1.67,2.38,4.53.96,6.6-1.63,2.08-4.49,2.63-6.58,1.08l-26.34-19.8c-2-1.6-2.38-4.49-.96-6.54m-19.85,35.77c1.05-2.61,3.72-3.67,6.3-2.63l41.99,16.74c23.1-51.55,82.83-76.03,135.9-54.66,53.25,21.47,80.26,80.86,62.41,134.58l41.52,16.82c2.38.93,3.62,3.55,2.58,6.06-.76,2.1-2.96,3.29-4.96,2.89l-54.88-22.03c.48-1.28,1.06-2.41,1.44-3.65,18.8-48.26-4.78-102.87-52.87-122.27-48.11-19.3-101.92,4.09-120.82,52.32-.48,1.17-.87,2.49-1.25,3.65l-55.35-22.15c-2-1.31-2.67-3.58-2-5.7m-186.66,164.38c18.62.21,54.88,1.1,83.7,6.25v10.19c-29.11-5.1-65.08-6.09-83.7-6.21v-10.23Zm347.85,108.58s-3.72,0-9.45.19v-15.73c36.94.84,72.62-.28,91.32-.73-9.17,5.71-18.71,11.14-28.63,16.17l-53.25.1Zm-16.51,15.26c-12.88,0-32.64-.47-56.69-5.78-23.08-4.91-57.44-15.46-89.32-27.08v-10.11c31.3,11.33,64.99,21.56,88.47,26.57,15.17,3.25,36.36,5.97,57.55,6.78v9.61Zm-303.76-79.3c-8.49-3.29-16.88-7.08-23.96-11.24,20.91.36,53.92,1.74,80.08,6.58v10.5c-17.85-3.34-38.37-5.08-56.12-5.85m63.08-22.15c10.49,2.24,19.57,5.16,25.67,8.86,13.55,8.3,36.46,18.25,61.46,27.63v14.08c-24.71-9.22-47.14-18.95-60.4-27.11-6.4-3.83-15.85-6.84-26.73-9.26l-.1-14.2h.1Zm151.64,57.6c10.5,3.01,20.14,5.53,28.54,7.2,14.98,3.3,37.7,5.6,60.5,6.38v15.7c-12.88,0-32.73-1.27-56.69-6.45-23.18-4.91-57.44-15.41-89.32-26.96v-14.34c4.4,1.6,8.68,3.18,13.17,4.63v13.84h43.8Zm-151.64-38.65c10.02,2.22,18.81,5.08,24.52,8.75,13.84,8.4,37.13,18.34,62.61,27.91v10.26c-5.82-2.17-11.54-4.3-16.98-6.56-10.6-6.08-24.81-13.43-38.84-17.87-.09-.1-.19-.1-.19-.1-1.52-.91-3.05-1.69-4.3-2.52-6.49-4.12-15.94-7.04-26.82-9.38v-10.5Zm252.33,47.59c-.2.07-1.63-.42-4.59-.26v-10.57c46.38,1.53,95.62.17,111.75.17-4.39,3.26-8.97,6.46-13.74,9.59l-93.42,1.07Zm-11.65,0c-12.11.24-33.31-.5-59.64-6.25-7.36-1.57-15.94-3.67-25.11-6.27v-10.07c8.78,2.42,17,4.56,24.24,6.07,14.03,3.05,36.65,5.33,60.5,6.19v10.33Zm-132.84-27.57c-4.49-1.56-8.77-3.08-13.17-4.71v-9.94c4.4,1.57,8.78,3.1,13.17,4.67v9.98Zm-20.71-7.5c-24.43-9.07-46.48-18.63-59.36-26.53-6.68-4.17-16.41-7.28-27.77-9.64v-10.2c10.49,2.26,19.57,5.22,25.67,9.02,13.55,8.13,36.46,17.99,61.46,27.43v9.93Zm-94.09-32.92v14.17c-28.24-5.13-63.27-6.42-83.7-6.65v-13.57c18.62.07,54.88,1.02,83.7,6.06m0,39.85s-18.61-3.72-39.61-10.5c13.45,1.1,27.11,2.58,39.61,4.89v5.61Zm18.32-1.2c-4.01-.33-7.83-.18-11.46.5l.1-3.46c4,.89,7.82,1.86,11.36,2.96m229.32,76.44c-5.64,1.59-11.45,3.34-17.18,4.65-6.77-3.65-15.56-7.54-26.15-10.58-28.63-8.11-91.13-19.2-102.69-33.75v-.24c31.3,11.33,64.99,21.56,88.47,26.48,16.61,3.67,37.69,5.5,57.55,6.42v7.01Zm7.06-2.24v-4.49c3.91.02,8.98.21,12.89.33,0,0,0,.02-.1.02-4.3,1.42-8.4,2.85-12.79,4.14m27.48-9.64h0l-18.03-.31c0-.12-3.34-.26-9.45,0v-10.35c18.51.59,38.18.52,51.81.31l-.09.05c-7.73,3.64-15.93,7.05-24.24,10.3m171.4-150.97l-188.39.07,31.02,31.66,141.14-.81c-12.7,20.26-29.4,39.46-49.15,56.69-4.96,4.36-10.11,8.65-15.55,12.88l-113.18-.21c-.19,0-1.82.21-4.78.4v-7.92h-7.06v8.15c-12.22.22-33.31-.52-59.64-6.11-7.36-1.71-15.94-3.88-25.11-6.34v-60.96h-48.1v45.73c-4.49-1.46-8.77-3.06-13.17-4.67v-10.12h-7.54v7.45c-24.43-9.19-46.48-18.78-59.36-26.6-6.68-4.18-16.41-7.25-27.77-9.61v-6.8h-6.96v5.44c-29.11-5.09-65.08-6.02-83.7-6.23v-6.69l-8.11.05v6.64c-2.29.16-3.91.21-4.2.21v4.51h4.2v10.23c-2.29.12-3.81.12-4.3.12v4.54h4.3l.1,13.45h-.48c-2.58-1.7-21.66-14.36-33.78-14.91v-71.81l-10.02.69,20.52-56.21,130.93.05,73.97.68,6.77,16.51,11.07-16.49,69,1.11,79.68,61.51.19,24.49,2.87-4.84h138.28l57.84.14c-.57,1.27-.96,2.63-1.53,3.91"/>
    <polygon class="cls-1" points="495.07 456.42 477.99 473.96 468.93 454.7 271.67 454.95 302.87 518.31 491.17 518.31 491.17 515.95 550.53 465.2 620.19 522.38 631.55 518.4 551 456.42 495.07 456.42"/>
    <polygon class="cls-1" points="331.69 550.83 361.85 550.83 361.85 536.01 331.79 536.16 331.69 550.83"/>
    <polygon class="cls-1" points="436.38 550.83 466.54 550.83 466.54 536.01 436.48 536.16 436.38 550.83"/>
    <polygon class="cls-1" points="699.49 605.7 717.24 605.7 717.24 590.05 689.57 590.05 689.57 605.7 693.1 605.7 699.49 605.7"/>
    <polygon class="cls-1" points="771.16 605.7 775.36 605.7 775.36 590.05 747.77 590.05 747.77 605.7 753.41 605.7 771.16 605.7"/>
  </g>
</svg>